<?xml version="1.0" encoding="utf-8"?>
<!-- Generator: Adobe Illustrator 23.0.1, SVG Export Plug-In . SVG Version: 6.00 Build 0)  -->
<svg version="1.1" id="Laag_1" xmlns="http://www.w3.org/2000/svg" xmlns:xlink="http://www.w3.org/1999/xlink" x="0px" y="0px"
	 viewBox="0 0 104.3 104.3" style="enable-background:new 0 0 104.3 104.3;" xml:space="preserve">
<style type="text/css">
	.st0{fill:#FEBB34;}
	.st1{fill:#FFFFFF;}
</style>
<title>ster-blank_1</title>
<g>
	<g id="Laag_1-2">
		<g id="Laag_1-2-2">
			<g id="Symbols">
				<g id="illustration_sterabo2">
					<g id="Star-Copy-12">
						<path class="st0" d="M54.5,5.9c4.3,6.7,12.2,20.3,13.5,30.8c0.3,2.3,1.5,2.5,7.3,3.5C78.2,40.7,82,41.3,86,42
							c4.8,0.8,10.8,1.7,14.2,2.4C96.9,48.7,87.1,58,78.3,65.4l-1.2,1l0.2,1.6l3.1,29.7c-4.4-3.1-8.9-6-13.6-8.7
							c-4.4-2.4-9.1-4.1-14-5.1l-1.2-0.2l-1,0.7c-9.5,6.4-20.8,13.3-26.4,15.9c1.7-7.4,5.8-23.8,8.6-34.6l0.4-1.7L32,62.8
							c-4.7-4.5-9.9-8.5-15.5-11.9c-3.8-2.4-7.4-5.2-10.5-8.5c5.2-0.5,12.5-1.2,16.4-1.2h0.1c4.9-0.1,9.7-0.6,14.5-1.5l1.3-0.2
							l0.7-1.2c0.2-0.3,4.2-7,6.7-12.2c0.7-1.5,1.5-3.3,2.3-5.5c0.9-2.3,2-4.9,3.3-8C52.4,10.2,53.5,7.8,54.5,5.9 M54.1,0
							c0,0-2.9,5.3-5.6,11.4S44.4,21.9,43,24.8c-2.5,5.1-6.6,12-6.6,12c-4.6,0.8-9.3,1.3-14,1.4C15.9,38.2,0,40.1,0,40.1
							c4.2,5.3,9.2,9.8,14.9,13.4c5.4,3.3,10.4,7.1,14.9,11.5c0,0-9.9,38.3-9.4,39.1c0.2,0.2,0.5,0.3,0.8,0.3
							c5.1,0,31.1-17.4,31.1-17.4c4.6,0.9,9,2.5,13.1,4.8c7.3,3.9,18.8,12.4,18.8,12.4l-3.8-36.3c0,0,28-23.8,23.5-25.7
							c-2.1-0.8-32.8-5.3-32.8-5.8C69.1,21,54.1,0,54.1,0z"/>
					</g>
				</g>
			</g>
		</g>
	</g>
</g>
<path class="st1" d="M54.5,5.9c4.3,6.7,12.2,20.3,13.5,30.8c0.3,2.3,1.5,2.5,7.3,3.5C78.2,40.7,82,41.3,86,42
	c4.8,0.8,10.8,1.7,14.2,2.4C96.9,48.7,87.1,58,78.3,65.4l-1.2,1l0.2,1.6l3.1,29.7c-4.4-3.1-8.9-6-13.6-8.7c-4.4-2.4-9.1-4.1-14-5.1
	l-1.2-0.2l-1,0.7c-9.5,6.4-20.8,13.3-26.4,15.9c1.7-7.4,5.8-23.8,8.6-34.6l0.4-1.7L32,62.8c-4.7-4.5-9.9-8.5-15.5-11.9
	c-3.8-2.4-7.4-5.2-10.5-8.5c5.2-0.5,12.5-1.2,16.4-1.2h0.1c4.9-0.1,9.7-0.6,14.5-1.5l1.3-0.2l0.7-1.2c0.2-0.3,4.2-7,6.7-12.2
	c0.7-1.5,1.5-3.3,2.3-5.5c0.9-2.3,2-4.9,3.3-8C52.4,10.2,53.5,7.8,54.5,5.9"/>
</svg>
