<svg xmlns="http://www.w3.org/2000/svg" viewBox="0 0 104.26 104.29"><defs><style>.cls-1{fill:#febb34;}</style></defs><title>ster-blank_1</title><g id="Laag_2" data-name="Laag 2"><g id="Laag_1-2" data-name="Laag 1"><g id="Laag_1-2-2" data-name="Laag 1-2"><g id="Symbols"><g id="illustration_sterabo2" data-name="illustration sterabo2"><g id="Star-Copy-12"><path class="cls-1" d="M54.48,5.93C58.79,12.67,66.7,26.24,68,36.68c.32,2.34,1.52,2.55,7.27,3.54,2.89.5,6.69,1.11,10.71,1.76,4.77.77,10.82,1.74,14.25,2.37C96.92,48.7,87.14,58,78.34,65.45l-1.21,1L77.3,68l3.12,29.65A157.58,157.58,0,0,0,66.8,89a47,47,0,0,0-14-5.09l-1.21-.24-1,.69c-9.54,6.4-20.84,13.29-26.42,15.87,1.68-7.45,5.81-23.78,8.59-34.55L33.21,64,32,62.78A87.82,87.82,0,0,0,16.52,50.9,54.68,54.68,0,0,1,6,42.43c5.16-.54,12.54-1.25,16.38-1.25h.06a92.39,92.39,0,0,0,14.47-1.45l1.34-.24.7-1.17c.17-.28,4.21-7,6.71-12.24.73-1.5,1.46-3.34,2.31-5.46.92-2.3,2-4.91,3.33-8,1.09-2.45,2.22-4.8,3.16-6.7M54.14,0s-2.86,5.35-5.56,11.41S44.39,21.86,43,24.78c-2.47,5.15-6.58,12-6.58,12a90,90,0,0,1-14,1.4C15.9,38.18,0,40.09,0,40.09A57.73,57.73,0,0,0,14.94,53.45,84.52,84.52,0,0,1,29.87,64.94S20,103.26,20.45,104a.85.85,0,0,0,.76.29c5.09,0,31.06-17.43,31.06-17.43a44.24,44.24,0,0,1,13.07,4.77C72.64,95.56,84.1,104,84.1,104L80.28,67.73s28-23.82,23.49-25.66c-2.09-.85-32.76-5.29-32.83-5.8C69.08,21,54.14,0,54.14,0Z"/></g></g></g></g></g></g></svg>