<?xml version="1.0" encoding="utf-8"?>
<!-- Generator: Adobe Illustrator 23.0.1, SVG Export Plug-In . SVG Version: 6.00 Build 0)  -->
<svg version="1.1" id="Laag_1" xmlns="http://www.w3.org/2000/svg" xmlns:xlink="http://www.w3.org/1999/xlink" x="0px" y="0px"
	 viewBox="0 0 39.2 37.7" style="enable-background:new 0 0 39.2 37.7;" xml:space="preserve">
<style type="text/css">
	.st0{fill-rule:evenodd;clip-rule:evenodd;fill:#A17A59;}
	.st1{fill:#FFFFFF;stroke:#A17A59;stroke-width:2;stroke-linejoin:round;}
	.st2{fill-rule:evenodd;clip-rule:evenodd;fill:#FFFFFF;}
</style>
<g transform="translate(0 1)">
	<path class="st0" d="M1.3,16h8.4c0.4,0,0.6,0,0.8,0.1c0.2,0.1,0.3,0.2,0.4,0.4c0.1,0.2,0.1,0.3,0.1,0.8v16.4c0,0.4,0,0.6-0.1,0.8
		c-0.1,0.2-0.2,0.3-0.4,0.4C10.3,35,10.2,35,9.7,35H1.3c-0.4,0-0.6,0-0.8-0.1c-0.2-0.1-0.3-0.2-0.4-0.4S0,34.2,0,33.7V17.3
		c0-0.4,0-0.6,0.1-0.8c0.1-0.2,0.2-0.3,0.4-0.4C0.7,16,0.8,16,1.3,16z M2,17.9V33h7V17.9H2z"/>
	<path class="st1" d="M13,18.2c0-0.6,0.2-1.2,0.7-1.6c3-3.1,5-5.5,5.9-7C21,7,21.2,3.3,21.9,1.8s1.2-1.6,2.4-1.8s1.2,0,2.4,1.2
		c0.8,0.8,0.8,3.1,0.1,7.1c0,0.2-0.1,0.4-0.2,0.6l-2.3,4.8c-0.4,0.8,0.2,1.2,1.8,1.2c2.4,0,7.2-0.4,8.9,0c1.7,0.4,2.8,1.6,3,3
		c0.1,0.6-0.2,1.2-0.9,1.8c-0.7,0.6-0.8,1.7-0.5,2.5c0.1,0.3,0.2,0.7,0.2,1c0,0.5-0.3,1.1-1,1.8c-0.6,0.6-1,1.5-0.8,2.3
		c0.1,0.4,0.1,0.8,0,1.3c-0.2,0.7-0.6,1.3-1.2,1.9c-0.4,0.3-0.6,0.8-0.7,1.3c-0.1,0.5-0.3,1.1-0.5,1.6c-0.3,0.5-0.6,1-1.1,1.3
		c-0.4,0.3-0.9,0.5-1.4,0.5H18.5c-0.1,0-0.3,0-0.4,0l-2.7-0.4c-0.5-0.1-0.9-0.3-1.2-0.6l-0.6-0.6c-0.4-0.4-0.7-1-0.7-1.6V18.2z"/>
</g>
<rect x="2" y="18.9" class="st2" width="7" height="15.1"/>
</svg>
