<svg xmlns="http://www.w3.org/2000/svg" viewBox="0 0 37.85 36.7"><defs><style>.cls-1{fill:#e45629;fill-rule:evenodd;}.cls-2,.cls-3{fill:#e8782b;}.cls-2{stroke:#e45629;stroke-width:1.7px;}</style></defs><title>duimpje-vol</title><g id="Laag_2" data-name="Laag 2"><g id="Laag_1-2" data-name="Laag 1"><path class="cls-1" d="M1.28,16.85H9.72a1.54,1.54,0,0,1,.77.13,1,1,0,0,1,.38.38,1.54,1.54,0,0,1,.13.77V34.57a1.54,1.54,0,0,1-.13.77,1,1,0,0,1-.38.38,1.54,1.54,0,0,1-.77.13H1.28a1.54,1.54,0,0,1-.77-.13,1,1,0,0,1-.38-.38A1.54,1.54,0,0,1,0,34.57V18.13a1.54,1.54,0,0,1,.13-.77A1,1,0,0,1,.51,17,1.54,1.54,0,0,1,1.28,16.85ZM2,18.75V33.83h7V18.75Z"/><path class="cls-2" d="M12,18.08a46.81,46.81,0,0,0,6.55-7.71c1.46-2.52,1.64-6.23,2.38-7.7S22.16,1,23.31.9s1.19,0,2.38,1.18q1.18,1.19,0,7.41l-2.38,5c-.4.79.19,1.19,1.78,1.19,2.38,0,7.2-.43,8.93,0a3.6,3.6,0,0,1,3,3c.1.92-.7,1.91-2.38,3A3.38,3.38,0,0,1,35.8,24c0,.79-.79,1.78-2.38,3a2.4,2.4,0,0,1,.6,2.37,4.1,4.1,0,0,1-1.79,2.37,5.32,5.32,0,0,1-.59,2.37,3.86,3.86,0,0,1-1.79,1.78H17.36l-3.57-.59L12,33.48Z"/><rect class="cls-3" x="1.96" y="18.75" width="6.97" height="15.08"/></g></g></svg>