<svg xmlns="http://www.w3.org/2000/svg" width="395" height="202">
  <g fill="none" fill-rule="evenodd" stroke="#FDEDCC" stroke-width="2" opacity=".2">
    <path d="M368.953 247.94H26.18c-13.595 0-24.73-11.104-24.73-24.686V25.9c0-13.58 11.135-24.683 24.73-24.683h342.773c13.606 0 24.73 11.102 24.73 24.684v197.36c0 13.583-11.124 24.686-24.73 24.686z"/>
    <path d="M242.442 78.283h87.387M242.44 130.7h87.387m-87.388 52.418h87.382" stroke-linecap="round"/>
    <path d="M161.298 80.775c0-26.547-17.265-40.08-38.546-40.08-21.28 0-38.546 13.533-38.546 40.08 0 26.547 17.265 56.104 38.546 56.104 21.28 0 38.546-29.56 38.546-56.11z"/>
    <path d="M101.654 127.263c-6.575 5.552-13.384 12.275-22.974 16.925-19.107 9.253-23.185 41.388-23.185 41.388-2.31 10.3 4.474 18.628 15.028 18.628h105.022c10.616 0 17.166-8.303 14.163-18.492 0 0-5.797-32.27-24.977-41.524-9.03-4.354-15.05-10.547-20.65-15.888-6.19 5.255-13.2 8.4-20.61 8.4-7.91 0-15.35-3.552-21.81-9.437z"/>
  </g>
</svg>
