<svg xmlns="http://www.w3.org/2000/svg" viewBox="0 0 104.26 104.26"><defs><style>.cls-1{fill:#febb34;fill-rule:evenodd;}</style></defs><title>Ster</title><g id="Laag_2" data-name="Laag 2"><g id="Laag_1-2" data-name="Laag 1"><g id="Symbols"><g id="illustration_sterabo2" data-name="illustration sterabo2"><path id="Star-Copy-12" class="cls-1" d="M52.27,86.86S22.4,106.9,20.45,104c-.49-.74,9.42-39.06,9.42-39.06A84.71,84.71,0,0,0,14.94,53.45,57.86,57.86,0,0,1,0,40.09s15.9-1.91,22.4-1.91a89.22,89.22,0,0,0,14-1.4s4.11-6.85,6.58-12c1.41-2.92,2.9-7.31,5.6-13.37S54.14,0,54.14,0s14.94,21,16.8,36.27c.07.51,30.74,4.95,32.83,5.8,4.51,1.84-23.49,25.66-23.49,25.66L84.1,104S72.64,95.56,65.34,91.63A44.33,44.33,0,0,0,52.27,86.86Z"/></g></g></g></g></svg>