<?xml version="1.0" encoding="UTF-8"?>
<svg width="389px" height="178px" viewBox="0 0 389 178" version="1.1" xmlns="http://www.w3.org/2000/svg" xmlns:xlink="http://www.w3.org/1999/xlink">
    <!-- Generator: Sketch 47.1 (45422) - http://www.bohemiancoding.com/sketch -->
    <title>Illustration/Product-large/Sterabonement</title>
    <desc>Created with Sketch.</desc>
    <defs></defs>
    <g id="Symbols" stroke="none" stroke-width="1" fill="none" fill-rule="evenodd">
        <g id="Illustration/Product-large/Sterabonement">
            <g id="illustration_sterabo2" transform="translate(37.000000, 17.000000)">
                <g id="Group-2" transform="translate(26.000000, 9.000000)" fill="#A17A59">
                    <g id="Modaliteit/Bus-static" transform="translate(0.000000, 2.000000)">
                        <g transform="translate(20.000000, 33.750000)" id="A/Modaliteit/Bus">
                            <g>
                                <path d="M117.217742,104.361488 L25.2822581,104.361488 C21.4741656,104.361488 18.3870968,101.314256 18.3870968,97.5553042 L18.3870968,6.80618401 C18.3870968,3.04723238 21.4741656,6.90508213e-16 25.2822581,0 L117.217742,0 C121.025834,2.30169404e-16 124.112903,3.04723238 124.112903,6.80618401 L124.112903,97.5553042 C124.112903,101.314256 121.025834,104.361488 117.217742,104.361488 Z M25.2822581,4.53745601 C24.0128939,4.53745601 22.983871,5.55320013 22.983871,6.80618401 L22.983871,97.5553042 C22.983871,98.8082881 24.0128939,99.8240322 25.2822581,99.8240322 L117.217742,99.8240322 C118.487106,99.8240322 119.516129,98.8082881 119.516129,97.5553042 L119.516129,6.80618401 C119.516129,5.55320013 118.487106,4.53745601 117.217742,4.53745601 L25.2822581,4.53745601 Z" id="Shape" fill-rule="nonzero" style="mix-blend-mode: multiply;"></path>
                                <path d="M34.4758065,72.5992961 L108.024194,72.5992961 L108.024194,22.68728 L34.4758065,22.68728 L34.4758065,72.5992961 Z M29.8790323,22.6804844 C29.8790323,20.1782698 31.9243499,18.149824 34.4751337,18.149824 L108.024866,18.149824 C110.563223,18.149824 112.620968,20.1802876 112.620968,22.6804844 L112.620968,72.6060917 C112.620968,75.1083064 110.57565,77.1367521 108.024866,77.1367521 L34.4751337,77.1367521 C31.9367769,77.1367521 29.8790323,75.1062886 29.8790323,72.6060917 L29.8790323,22.6804844 Z" id="Rectangle-Copy-2" fill-rule="nonzero"></path>
                                <path d="M9.07862903,49.9120161 L4.59677419,49.9120161 C2.05804591,49.9120161 3.10904547e-16,47.8805278 0,45.3745601 L0,31.7621921 C-3.10904547e-16,29.2562243 2.05804591,27.224736 4.59677419,27.224736 L9.07862903,27.224736 C11.6173573,27.224736 13.6754032,29.2562243 13.6754032,31.7621921 L13.6754032,45.3745601 C13.6754032,47.8805278 11.6173573,49.9120161 9.07862903,49.9120161 Z M9.07862903,31.7621921 L4.59677419,31.7621921 L4.59677419,45.3745601 L9.07862903,45.3745601 L9.07862903,31.7621921 Z" id="Shape" fill-rule="nonzero" style="mix-blend-mode: multiply;"></path>
                                <path d="M137.673387,49.9120161 L133.306452,49.9120161 C130.767723,49.9120161 128.709677,47.8805278 128.709677,45.3745601 L128.709677,31.7621921 C128.709677,29.2562243 130.767723,27.224736 133.306452,27.224736 L137.673387,27.224736 C140.212115,27.224736 142.270161,29.2562243 142.270161,31.7621921 L142.270161,45.3745601 C142.270161,47.8805278 140.212115,49.9120161 137.673387,49.9120161 Z M137.673387,31.7621921 L133.306452,31.7621921 L133.306452,45.3745601 L137.903226,45.3745601 L137.673387,31.7621921 Z" id="Shape" fill-rule="nonzero" style="mix-blend-mode: multiply;"></path>
                                <path d="M36.25,111.25 C36.2489102,111.248486 36.2478878,105.012331 36.2478878,105.012331 C36.2478878,105.005848 27.5,105 27.5,105 C27.5010898,105.001514 27.5021122,111.237669 27.5021122,111.237669 C27.5021122,111.244152 36.25,111.25 36.25,111.25 Z M22.5,104.656598 C22.5,102.08483 24.578218,100 27.18305,100 L36.56695,100 C39.1533271,100 41.25,102.058074 41.25,104.656598 L41.25,111.593402 C41.25,114.16517 39.171782,116.25 36.56695,116.25 L27.18305,116.25 C24.5966729,116.25 22.5,114.191926 22.5,111.593402 L22.5,104.656598 Z" id="Rectangle" fill-rule="nonzero" style="mix-blend-mode: multiply;"></path>
                                <path d="M115,111.25 C114.99891,111.248486 114.997888,105.012331 114.997888,105.012331 C114.997888,105.005848 106.25,105 106.25,105 C106.25109,105.001514 106.252112,111.237669 106.252112,111.237669 C106.252112,111.244152 115,111.25 115,111.25 Z M101.25,104.656598 C101.25,102.08483 103.328218,100 105.93305,100 L115.31695,100 C117.903327,100 120,102.058074 120,104.656598 L120,111.593402 C120,114.16517 117.921782,116.25 115.31695,116.25 L105.93305,116.25 C103.346673,116.25 101.25,114.191926 101.25,111.593402 L101.25,104.656598 Z" id="Rectangle" fill-rule="nonzero" style="mix-blend-mode: multiply;"></path>
                                <path d="M20.6854839,34.0309201 L11.4919355,34.0309201 C10.2225713,34.0309201 9.19354839,33.0151759 9.19354839,31.7621921 C9.19354839,30.5092082 10.2225713,29.4934641 11.4919355,29.4934641 L20.6854839,29.4934641 C21.954848,29.4934641 22.983871,30.5092082 22.983871,31.7621921 C22.983871,33.0151759 21.954848,34.0309201 20.6854839,34.0309201 Z" id="Shape" fill-rule="nonzero" style="mix-blend-mode: multiply;"></path>
                                <path d="M131.008065,34.0309201 L121.814516,34.0309201 C120.545152,34.0309201 119.516129,33.0151759 119.516129,31.7621921 C119.516129,30.5092082 120.545152,29.4934641 121.814516,29.4934641 L131.008065,29.4934641 C132.277429,29.4934641 133.306452,30.5092082 133.306452,31.7621921 C133.306452,33.0151759 132.277429,34.0309201 131.008065,34.0309201 Z" id="Shape" fill-rule="nonzero" style="mix-blend-mode: multiply;"></path>
                                <rect id="Rectangle-2" style="mix-blend-mode: multiply;" x="18.3870968" y="9.07491202" width="105.725806" height="4.53745601"></rect>
                                <path d="M36.7741935,95.2865762 C32.9661011,95.2865762 29.8790323,92.2393438 29.8790323,88.4803922 C29.8790323,84.7214405 32.9661011,81.6742081 36.7741935,81.6742081 C40.582286,81.6742081 43.6693548,84.7214405 43.6693548,88.4803922 C43.6693548,92.2393438 40.582286,95.2865762 36.7741935,95.2865762 Z M36.7741935,90.7491202 C38.0435577,90.7491202 39.0725806,89.733376 39.0725806,88.4803922 C39.0725806,87.2274083 38.0435577,86.2116642 36.7741935,86.2116642 C35.5048294,86.2116642 34.4758065,87.2274083 34.4758065,88.4803922 C34.4758065,89.733376 35.5048294,90.7491202 36.7741935,90.7491202 Z" id="Oval" fill-rule="nonzero"></path>
                                <path d="M105.725806,95.2865762 C101.917714,95.2865762 98.8306452,92.2393438 98.8306452,88.4803922 C98.8306452,84.7214405 101.917714,81.6742081 105.725806,81.6742081 C109.533899,81.6742081 112.620968,84.7214405 112.620968,88.4803922 C112.620968,92.2393438 109.533899,95.2865762 105.725806,95.2865762 Z M105.725806,90.7491202 C106.995171,90.7491202 108.024194,89.733376 108.024194,88.4803922 C108.024194,87.2274083 106.995171,86.2116642 105.725806,86.2116642 C104.456442,86.2116642 103.427419,87.2274083 103.427419,88.4803922 C103.427419,89.733376 104.456442,90.7491202 105.725806,90.7491202 Z" id="Oval" fill-rule="nonzero"></path>
                            </g>
                        </g>
                    </g>
                    <g id="Modaliteit/Tram-static" transform="translate(131.000000, 0.000000)">
                        <g id="Tram-static" transform="translate(50.833333, 24.145833)">
                            <path d="M21.7019231,95.9616705 C18.1386244,95.9616705 15.25,93.1270797 15.25,89.6304348 C15.25,86.1337899 18.1386244,83.2991991 21.7019231,83.2991991 C25.2652218,83.2991991 28.1538462,86.1337899 28.1538462,89.6304348 C28.1538462,91.3095829 27.4740919,92.9199575 26.2641216,94.1072945 C25.0541513,95.2946315 23.4130795,95.9616705 21.7019231,95.9616705 L21.7019231,95.9616705 Z M21.7019231,87.5200229 C20.5141568,87.5200229 19.5512821,88.4648865 19.5512821,89.6304348 C19.5512821,90.7959831 20.5141568,91.7408467 21.7019231,91.7408467 C22.8896893,91.7408467 23.8525641,90.7959831 23.8525641,89.6304348 C23.8525641,88.4648865 22.8896893,87.5200229 21.7019231,87.5200229 Z" id="Shape" fill-rule="nonzero" style="mix-blend-mode: multiply;"></path>
                            <path d="M62.3685897,96.5374714 C58.805291,96.5374714 55.9166667,93.7028806 55.9166667,90.2062357 C55.9166667,86.7095908 58.805291,83.875 62.3685897,83.875 C65.9318885,83.875 68.8205128,86.7095908 68.8205128,90.2062357 C68.8205128,91.8853838 68.1407586,93.4957584 66.9307883,94.6830954 C65.720818,95.8704324 64.0797461,96.5374714 62.3685897,96.5374714 L62.3685897,96.5374714 Z M62.3685897,88.0958238 C61.1808235,88.0958238 60.2179487,89.0406874 60.2179487,90.2062357 C60.2179487,91.371784 61.1808235,92.3166476 62.3685897,92.3166476 C63.556356,92.3166476 64.5192308,91.371784 64.5192308,90.2062357 C64.5192308,89.0406874 63.556356,88.0958238 62.3685897,88.0958238 Z" id="Shape" fill-rule="nonzero" style="mix-blend-mode: multiply;"></path>
                            <path d="M67.476641,110.5625 L16.3980585,110.5625 C12.0395312,110.556941 7.86211614,108.871829 4.78627011,105.878463 C1.71042408,102.885097 -0.0114465804,98.8291152 5.72744375e-05,94.604218 L5.72744375e-05,56.8082871 C-0.0114405709,48.4938473 3.38489396,40.5155187 9.44190441,34.6284463 C15.4989149,28.7413739 23.7204413,25.4277971 32.2978378,25.4166667 L51.5768617,25.4166667 C69.4129853,25.4398233 83.8627117,39.4559595 83.8746422,56.7452939 L83.8746422,94.5412248 C83.9034707,98.777011 82.189257,102.84921 79.1115315,105.856228 C76.033806,108.863246 71.8464817,110.557004 67.476641,110.5625 L67.476641,110.5625 Z M32.1650419,29.2291667 C16.5082253,29.2525512 3.82530089,41.5108966 3.81321069,56.6318798 L3.81321069,94.8090344 C3.77801663,97.9642155 5.05122532,101.001875 7.34906247,103.244975 C9.64689962,105.488074 12.7783836,106.750183 16.0455654,106.75 L67.8299325,106.75 C74.5856755,106.75 80.0622873,101.460823 80.0622873,94.9362916 L80.0622873,56.759137 C80.0914628,49.4748488 77.1186902,42.4786317 71.7997905,37.3139159 C66.4808909,32.1492002 59.2529276,29.2403795 51.7104561,29.2291667 L32.1650419,29.2291667 Z" id="Shape" fill-rule="nonzero" style="mix-blend-mode: multiply;"></path>
                            <rect id="Rectangle-path" fill-rule="nonzero" style="mix-blend-mode: multiply;" x="38.125" y="11.3589817" width="7.625" height="21.821659" rx="1.84"></rect>
                            <path d="M49.5253044,79.7368301 L34.3496956,80.0625 C31.4663136,80.0625 15.25,75.5720359 15.25,68.0091489 L15.25,56.8581877 C15.25,51.4868191 15.25,44.8048365 22.7077699,44.8048365 L61.1455505,44.4791667 C68.625,44.4791667 68.625,51.1611492 68.625,56.5325178 L68.625,67.683479 C68.6033204,75.246366 52.4737251,79.7368301 49.5253044,79.7368301 Z M22.2574625,48.2916667 C19.528432,48.2916667 19.0625,49.8309108 19.0625,56.6638176 L19.0625,68.2152138 C19.0625,71.6650528 31.0214221,76.25 34.17201,76.25 L49.70299,75.9126352 C52.8535779,75.9126352 64.8125,71.305431 64.8125,67.877849 L64.8125,56.3264528 C64.8125,49.493546 64.3243807,48.2916667 61.5953503,48.2916667 L22.2574625,48.2916667 Z" id="Shape" fill-rule="nonzero" style="mix-blend-mode: multiply;"></path>
                            <path d="M59.0617692,15.5798055 L24.8132308,15.5798055 C23.7427755,15.5798055 22.875,14.6349419 22.875,13.4693936 C22.875,12.3038453 23.7427755,11.3589817 24.8132308,11.3589817 L59.0617692,11.3589817 C60.1322245,11.3589817 61,12.3038453 61,13.4693936 C61,14.6349419 60.1322245,15.5798055 59.0617692,15.5798055 Z" id="Shape" fill-rule="nonzero" style="mix-blend-mode: multiply;"></path>
                            <path d="M58.9670428,15.1453089 C58.1040331,15.1445563 57.3250266,14.591824 56.988453,13.7414305 L52.687171,2.90164779 C52.4080375,1.79532523 52.9320155,0.637793363 53.916284,0.186386116 C54.9005524,-0.26502113 56.0452064,0.127239241 56.6013376,1.10652455 L60.9026197,11.9463072 C61.1838056,12.6567556 61.1136134,13.470716 60.7156793,14.1140994 C60.3177452,14.7574829 59.6450186,15.1446803 58.92403,15.1453089 L58.9670428,15.1453089 Z" id="Shape" fill-rule="nonzero" style="mix-blend-mode: multiply;"></path>
                            <path d="M25.0454421,15.1452125 C24.3206475,15.1522505 23.6412492,14.7736143 23.2381889,14.1380102 C22.8351286,13.502406 22.7626334,12.6953472 23.0453459,11.9911699 L27.346628,1.30373076 C27.8384159,0.200682251 29.0683603,-0.295310119 30.1320885,0.180454633 C31.1958166,0.656219385 31.7131994,1.93372406 31.3038075,3.07362515 L27.0025254,13.7610643 C26.6690368,14.5919679 25.9006196,15.1354315 25.0454421,15.1452125 Z" id="Shape" fill-rule="nonzero" style="mix-blend-mode: multiply;"></path>
                            <path d="M2.54166667,128.354167 L26.7647864,107.310479 C27.6184244,106.563174 29.0039446,106.563174 29.8597715,107.310479 C30.7134095,108.059701 30.7134095,109.272635 29.8597715,110.021857 L9.02224829,128.265694 L2.54166667,128.354167 Z" id="Fill-11" style="mix-blend-mode: multiply;"></path>
                            <path d="M53.375,128.354167 L77.5981197,107.310479 C78.4517578,106.563174 79.837278,106.563174 80.6931048,107.310479 C81.5467428,108.059701 81.5467428,109.272635 80.6931048,110.021857 L59.8555816,128.265694 L53.375,128.354167 Z" id="Fill-11" style="mix-blend-mode: multiply;" transform="translate(67.354167, 117.552083) scale(-1, 1) translate(-67.354167, -117.552083) "></path>
                        </g>
                    </g>
                </g>
                <path d="M52.2749458,86.8587743 C52.2749458,86.8587743 22.4035482,106.903107 20.4511307,103.966121 C19.9645466,103.234162 29.8713976,64.9054577 29.8713976,64.9054577 C29.8713976,64.9054577 24.2705106,59.1785056 14.9356988,53.4515534 C5.60088705,47.7246013 -4.26325641e-14,40.0886651 -4.26325641e-14,40.0886651 C-4.26325641e-14,40.0886651 15.9049892,38.179681 22.4035482,38.179681 C28.9021073,38.179681 36.3630382,36.7846977 36.3630382,36.7846977 C36.3630382,36.7846977 40.4695304,29.9285016 42.9401341,24.8167927 C44.3521719,21.8952692 45.8377823,17.5060563 48.5410211,11.4539043 C51.2442599,5.40175231 54.1419082,0 54.1419082,0 C54.1419082,0 69.077607,20.9988246 70.9445693,36.270697 C71.006932,36.7808275 101.680345,41.2232394 103.76696,42.0711587 C108.283816,43.9066332 80.2793811,67.732179 80.2793811,67.732179 L84.098761,103.966121 C84.098761,103.966121 72.6447278,95.5560159 65.3436823,91.6312344 C58.0426367,87.7064529 52.2749458,86.8587743 52.2749458,86.8587743 Z" id="Star-Copy-12" fill="#FEBB34" style="mix-blend-mode: multiply;"></path>
            </g>
        </g>
    </g>
</svg>