<svg xmlns="http://www.w3.org/2000/svg" viewBox="0 0 35.47 43.06"><defs><style>.cls-1{fill:#fff;}</style></defs><title>user_1</title><g id="Laag_2" data-name="Laag 2"><g id="Laag_1-2" data-name="Laag 1"><g id="Group-2"><path id="Stroke-9" class="cls-1" d="M28.68,10.87c0,7.46-5,14.92-10.74,14.92S7.19,18.33,7.19,10.87C7.19,4.13,11.61,0,17.94,0S28.68,4.13,28.68,10.87Zm-1.5,0c0-5.88-3.72-9.36-9.24-9.36S8.69,5,8.69,10.87c0,6.72,4.48,13.41,9.25,13.41S27.18,17.59,27.18,10.87Z"/><path id="Stroke-12" class="cls-1" d="M.2,37c.07-.4.15-.83.26-1.3a22,22,0,0,1,1.32-3.94,10.22,10.22,0,0,1,4.57-5.29,17.19,17.19,0,0,0,3.77-2.57L12,22.3l.5-.42.49.44a7.41,7.41,0,0,0,5,2.19,7.27,7.27,0,0,0,4.69-1.94l.51-.44.49.47.68.65c.26.26.48.46.69.66a14.43,14.43,0,0,0,3.62,2.56,11,11,0,0,1,4.75,5.28,23.45,23.45,0,0,1,1.49,3.94c.13.47.24.91.33,1.3,0,.21.08.37.1.47A4.23,4.23,0,0,1,31,43.06H4.63A4.45,4.45,0,0,1,.12,37.47C.14,37.37.16,37.21.2,37ZM11.09,25.05A19.08,19.08,0,0,1,7,27.83a8.78,8.78,0,0,0-3.87,4.55,20.79,20.79,0,0,0-1.22,3.67c-.1.43-.18.84-.24,1.21,0,.21-.06.36-.07.44l0,.07a3,3,0,0,0,3,3.78H31a2.73,2.73,0,0,0,2.83-3.7l0-.08q0-.12-.09-.45c-.08-.36-.18-.77-.31-1.21A21.89,21.89,0,0,0,32,32.42,9.52,9.52,0,0,0,28,27.83,15.68,15.68,0,0,1,24,25l-.72-.68-.2-.2A8.46,8.46,0,0,1,17.92,26a8.67,8.67,0,0,1-5.48-2.14Z"/></g></g></g></svg>