<svg xmlns="http://www.w3.org/2000/svg" viewBox="0 0 29 32.83"><defs><style>.cls-1{fill:#fff;}</style></defs><title>Bewaar-idealState</title><g id="Laag_2" data-name="Laag 2"><g id="Laag_1-2" data-name="Laag 1"><path class="cls-1" d="M25.67,18.83H24.8l-2-3.5-3.09-11h3.56A1.84,1.84,0,0,0,25.09,2.5V1.84A1.85,1.85,0,0,0,23.25,0H5.75A1.85,1.85,0,0,0,3.91,1.84V2.5A1.84,1.84,0,0,0,5.75,4.33H9.19l-3,11h0l-2,3.5H3.33a3.34,3.34,0,0,0,0,6.67H13.46v3.85l1,3.48,1-3.48V25.5H25.67a3.34,3.34,0,0,0,0-6.67Z"/></g></g></svg>